<svg id="Capa_1" enable-background="new 0 0 509.997 509.997" height="512" viewBox="0 0 509.997 509.997" width="512" xmlns="http://www.w3.org/2000/svg"><path d="m323.644 218.591v-61.252h155.727c16.914 0 30.626 13.712 30.626 30.626 0 16.914-13.712 30.626-30.626 30.626z" fill="#00ab5e"/><path d="m291.406 186.353h61.252v-155.727c0-16.914-13.712-30.626-30.626-30.626-16.914 0-30.626 13.712-30.626 30.626z" fill="#d5fc9a"/><path d="m346.146 207.163-43.312-43.312 110.116-110.116c11.96-11.96 31.352-11.96 43.312 0 11.96 11.96 11.96 31.352 0 43.312z" fill="#7ee881"/><path d="m368.767 293.76-99.35 99.36-19.41 19.4c-.6.6-1.21 1.21-1.82 1.79-54.79 53.98-126.37 87.67-202.94 95.47-12.94 1.32-24.85-3.47-33.21-11.82-8.35-8.36-13.14-20.27-11.82-33.21 3.7-36.31 13.22-71.49 27.96-104.29 4.029-9.014 8.932-18.745 14.27-28.16 14.9-26.29 33.36-50.64 55.03-72.31l57.86-57.86 21.21-21.21 39.69-39.69c33.22-33.22 87.09-33.22 120.31 0l32.22 32.22c33.22 33.22 33.22 87.09 0 120.31z" fill="#fff5f5"/><path d="m368.767 293.76-99.35 99.36-19.41 19.4c-.6.6-1.21 1.21-1.82 1.79-54.79 53.98-126.37 87.67-202.94 95.47-12.94 1.32-24.85-3.47-33.21-11.82l340.62-340.62 16.11 16.11c33.22 33.22 33.22 87.09 0 120.31z" fill="#f3e5cb"/><path d="m213.997 239.58c-5.822 5.822-15.326 5.884-21.21 0l-37.45-37.45 21.21-21.21 37.45 37.44c5.86 5.86 5.86 15.36 0 21.22z" fill="#f1c992"/><path d="m79.267 390.34c-5.86 5.86-15.382 5.848-21.21 0l-29.88-29.88c4.029-9.014 8.932-18.745 14.27-28.16l36.82 36.82c5.86 5.86 5.86 15.36 0 21.22z" fill="#f1c992"/><path d="m269.417 393.12-19.41 19.4c-.6.6-1.21 1.21-1.82 1.79l-38.12-38.12c-5.86-5.86-5.86-15.35 0-21.21s15.36-5.86 21.21 0z" fill="#dbad5c"/></svg>