<svg id="Layer_1" data-name="Layer 1" xmlns="http://www.w3.org/2000/svg" viewBox="0 0 174 174"><defs><style>.cls-1{fill:#b4e8c1;}.cls-2{fill:#4f7558;}.cls-3{fill:#88bd95;}.cls-4{fill:#fbf5e0;}.cls-5{fill:none;stroke:#b8ad85;stroke-linecap:round;stroke-miterlimit:10;stroke-width:5px;}.cls-6{fill:#eecea5;opacity:0.5;}</style></defs><path class="cls-1" d="M66.05,23.54C54.72,12.22,50.3,16.66,44.84,22.13S34.93,32,46.25,43.34,82.5,70.73,88,65.26,77.37,34.87,66.05,23.54Z"/><path class="cls-2" d="M130.88,43.15c11.33-11.32,6.89-15.74,1.42-21.21s-9.89-9.91-21.21,1.41S83.7,59.6,89.17,65.07,119.56,54.48,130.88,43.15Z"/><path class="cls-3" d="M102.5,16c0-16-6.27-16-14-16s-14,0-14,16,6.27,45,14,45S102.5,32,102.5,16Z"/><path class="cls-4" d="M158,97.5c-.43-33.41-31.29-52-70.5-52S15.57,64.09,16,97.5c.5,39,72,76.5,72,76.5S158.5,136.5,158,97.5Z"/><path class="cls-4" d="M158,97.5c-.43-33.41-31.29-52-70.5-52S15.57,64.09,16,97.5c.5,39,72,76.5,72,76.5S158.5,136.5,158,97.5Z"/><line class="cls-5" x1="38" y1="87" x2="63" y2="87"/><line class="cls-5" x1="45" y1="69" x2="70" y2="69"/><path class="cls-6" d="M88.92,173.5c8.22-4.54,69.55-39.61,69.08-76-.43-33.41-31.29-52-70.5-52v128Z"/><line class="cls-5" x1="96" y1="137" x2="121" y2="137"/><line class="cls-5" x1="113" y1="122" x2="138" y2="122"/></svg>